<svg xmlns="http://www.w3.org/2000/svg" viewBox="0 0 900 900">
<defs>
  <linearGradient id="blue" x1="0" y1="0" x2="1" y2="1"><stop stop-color="#0e63ff"/><stop offset="1" stop-color="#071d91"/></linearGradient>
  <linearGradient id="edge" x1="0" y1="0" x2="1" y2="1"><stop stop-color="#79d5ff"/><stop offset=".45" stop-color="#3e74ff"/><stop offset="1" stop-color="#9b4bff"/></linearGradient>
  <filter id="glow" x="-40%" y="-40%" width="180%" height="180%"><feGaussianBlur stdDeviation="13" result="b"/><feMerge><feMergeNode in="b"/><feMergeNode in="SourceGraphic"/></feMerge></filter>
  <filter id="shadow" x="-40%" y="-40%" width="180%" height="180%"><feDropShadow dx="0" dy="35" stdDeviation="28" flood-color="#000" flood-opacity=".5"/></filter>
  <clipPath id="cardClip"><rect x="120" y="95" width="660" height="660" rx="55"/></clipPath>
</defs>
<g transform="rotate(-5 450 430)" filter="url(#shadow)">
  <rect x="105" y="80" width="690" height="690" rx="64" fill="none" stroke="url(#edge)" stroke-width="8" opacity=".95" filter="url(#glow)"/>
  <rect x="120" y="95" width="660" height="660" rx="55" fill="#f5f7fb"/>
  <g clip-path="url(#cardClip)">
    <path d="M120 95h660v355c-120 75-222 18-332 12-108-6-210 60-328 10z" fill="url(#blue)"/>
    <path d="M120 444c121-63 229-17 334-7 107 10 206 67 326-13v45c-118 73-220 19-326 10-105-8-214-53-334 10z" fill="#34b6ff" opacity=".92"/>
  </g>
  <g fill="#ffbf00" font-family="Arial" font-size="48" font-weight="700" text-anchor="middle"><text x="450" y="160">★ ★ ★ ★ ★</text></g>
  <text x="450" y="225" fill="white" font-family="Arial" font-size="42" font-weight="800" text-anchor="middle">KAMI SANGAT MENGHARGAI</text>
  <text x="450" y="275" fill="white" font-family="Arial" font-size="42" font-weight="800" text-anchor="middle">ULASAN GOOGLE ANDA!</text>
  <circle cx="450" cy="430" r="86" fill="white" stroke="#7fc6ff" stroke-width="7"/>
  <text x="450" y="458" font-family="Arial" font-size="85" font-weight="900" text-anchor="middle" fill="#4285F4">G</text>
  <g transform="translate(205 535)" fill="none" stroke="#0b0b0b" stroke-width="12" stroke-linecap="round">
    <path d="M45 50c36-36 91-36 127 0"/><path d="M68 74c24-24 59-24 83 0"/><path d="M91 98c12-12 28-12 40 0"/>
  </g>
  <text x="277" y="650" font-family="Arial" font-size="31" font-weight="900" text-anchor="middle" fill="#111">NFC</text>
  <text x="277" y="690" font-family="Arial" font-size="23" font-weight="700" text-anchor="middle" fill="#111">Tempel untuk menilai</text>
  <g transform="translate(500 520)">
    <rect width="190" height="190" rx="18" fill="white" stroke="#1339b8" stroke-width="8"/>
    <g fill="#0a0a0a">
      <rect x="18" y="18" width="48" height="48"/><rect x="26" y="26" width="32" height="32" fill="white"/><rect x="34" y="34" width="16" height="16"/>
      <rect x="124" y="18" width="48" height="48"/><rect x="132" y="26" width="32" height="32" fill="white"/><rect x="140" y="34" width="16" height="16"/>
      <rect x="18" y="124" width="48" height="48"/><rect x="26" y="132" width="32" height="32" fill="white"/><rect x="34" y="140" width="16" height="16"/>
      <path d="M82 18h18v18H82zm20 20h18v18h-18zM82 58h18v18H82zm40 20h18v18h-18zM78 88h18v18H78zm24 0h18v18h-18zm22 22h18v18h-18zM82 130h18v18H82zm22 22h18v18h-18zm24-18h18v18h-18zm24-24h18v18h-18zM60 82h18v18H60zm0 24h18v18H60zM42 86h14v14H42z"/>
    </g>
    <rect x="34" y="176" width="122" height="36" rx="18" fill="#153cc7"/>
    <text x="95" y="201" fill="white" font-family="Arial" font-size="20" font-weight="800" text-anchor="middle">SCAN QR</text>
  </g>
  <text x="450" y="736" font-family="Arial" font-size="62" font-weight="900" letter-spacing="9" text-anchor="middle" fill="#1237bd">NEXA</text>
  <text x="450" y="765" font-family="Arial" font-size="18" font-weight="800" letter-spacing="5" text-anchor="middle" fill="#1237bd">SMART REVIEW SOLUTION</text>
</g>
</svg>